<svg width="84" height="30" viewBox="0 0 84 30" fill="none" xmlns="http://www.w3.org/2000/svg">
<g clip-path="url(#clip0_4_14)">
<path d="M11.8781 20.9449C11.877 20.9889 11.865 21.032 11.8432 21.0703C11.8214 21.1085 11.7904 21.1408 11.7531 21.1643C11.7157 21.1878 11.6732 21.2017 11.6291 21.2048C11.5851 21.2079 11.541 21.2001 11.5007 21.1821C10.6986 20.7761 9.80657 20.5793 8.90766 20.6098C6.80908 20.6098 5.39366 19.341 5.39366 17.4359C5.39366 15.2296 7.16387 14.1264 9.34927 14.1264H9.81353C11.278 14.1264 11.8857 14.7326 11.8857 16.1144L11.8781 20.9449ZM10.5231 11.3666H8.91898C4.85392 11.3666 1.92119 13.4374 1.92119 17.0142C1.92119 19.774 3.43096 21.5322 5.79375 22.3681L3.41586 25.4855L3.26111 25.67L3.05352 25.9072C2.84111 26.1318 2.60148 26.3291 2.34015 26.4946C1.94993 26.6729 1.51 26.7114 1.09459 26.6038C0.554842 26.487 0.147203 26.2837 0.0377443 26.6263C-0.158526 27.2363 0.483127 28.5089 0.868119 29.0736C1.0229 29.2657 1.22257 29.4169 1.44961 29.5141C1.67664 29.6112 1.92411 29.6513 2.1703 29.6308C3.99335 29.6308 5.24646 29.228 7.38657 25.8093C7.40921 25.7717 7.43186 25.734 7.45828 25.6964L7.71117 25.2822L9.02844 23.3696L10.0438 23.6633C10.5724 23.817 11.0368 24.1375 11.3675 24.5767C11.6982 25.0158 11.8773 25.55 11.8781 26.0992V29.2468C14.7278 29.2468 15.1694 29.2468 15.1694 27.5902V15.9186C15.1694 12.6355 13.8975 11.3666 10.5231 11.3666Z" fill="#009974"/>
<path d="M75.8435 14.3486H78.3836C80.0444 14.3486 80.7087 14.9811 80.7087 16.5549V29.2468C83.5546 29.2468 84 29.2468 84 27.5902V16.1897C84 12.7108 82.9205 11.3591 79.2971 11.3591H73.4127C72.9032 11.3591 72.254 11.3064 71.635 11.2838C71.5199 11.2799 71.4069 11.315 71.3143 11.3834C71.2218 11.4517 71.1552 11.5494 71.1254 11.6603C70.9291 12.323 70.295 14.0511 70.748 14.4992C71.0726 14.8267 71.5519 14.262 72.571 14.262L72.6125 14.3561C72.4539 17.4974 71.9951 20.6164 71.2424 23.6708C71.2085 23.8026 71.1707 23.9343 71.133 24.0473L70.8386 24.8003L70.748 25.0337C70.3403 26.1971 69.7968 26.7431 69.091 26.6715C68.4682 26.6188 68.1285 25.9788 67.9398 26.216C67.5284 26.6979 67.5397 28.0985 67.5812 28.7875C67.5927 28.8979 67.6385 29.0019 67.7123 29.085C67.7861 29.1681 67.8841 29.226 67.9926 29.2506L68.0757 29.2732C68.8173 29.4468 69.583 29.4939 70.3403 29.4125C70.4682 29.4121 70.5954 29.393 70.7178 29.356C72.605 29.0736 73.8166 27.6429 74.3337 24.9697C75.2886 20.0225 75.8435 14.3486 75.8435 14.3486Z" fill="#009974"/>
<path d="M52.0872 22.545C53.2799 19.2092 54.3179 16.6452 55.0388 15.1769C56.1587 17.6752 57.1366 20.2344 57.9677 22.8425C57.9818 22.8817 57.983 22.9244 57.9712 22.9643C57.9593 23.0042 57.935 23.0393 57.9017 23.0645C57.8685 23.0897 57.828 23.1037 57.7863 23.1044C57.7445 23.1051 57.7036 23.0925 57.6695 23.0684C56.8332 22.4443 55.819 22.1026 54.7746 22.0932C53.9238 22.0943 53.0906 22.3344 52.3702 22.786C52.3348 22.8048 52.2945 22.8125 52.2546 22.8081C52.2147 22.8038 52.1771 22.7876 52.1465 22.7616C52.116 22.7356 52.094 22.701 52.0834 22.6624C52.0728 22.6238 52.0741 22.5829 52.0872 22.545ZM49.9055 29.2468C50.717 29.2468 49.9055 28.8289 50.5585 27.6881C51.1624 26.6866 52.4722 24.9132 54.7746 24.9132C57.009 24.9132 58.5188 26.7958 59.2208 27.7973C59.7719 28.8552 59.0321 29.2468 59.8172 29.2468H63.6105C61.607 23.0536 59.2724 16.9718 56.6165 11.0278C56.3862 10.5572 52.174 11.0278 52.7552 11.9389C53.2119 12.7258 52.4193 13.9457 51.9739 14.8305C49.7621 19.0774 48.0259 23.7536 46.2255 29.2468H49.932H49.9055Z" fill="#009974"/>
<path d="M37.6462 17.8726V29.2468C40.5223 29.2468 40.7714 29.2468 40.7714 27.3643V11.3666C39.2617 11.4231 37.6726 11.6151 36.3176 12.2514C34.854 16.1244 33.1884 19.9185 31.3278 23.6181C29.3507 19.6394 27.609 15.5485 26.1115 11.3666C24.6999 11.4495 23.0429 11.6716 21.7973 12.2251V29.2468H24.9113V17.899C24.9121 17.8494 24.9301 17.8015 24.9624 17.7637C24.9946 17.7259 25.0389 17.7003 25.0879 17.6914C25.1368 17.6826 25.1874 17.6909 25.2309 17.715C25.2744 17.7391 25.3081 17.7775 25.3264 17.8237C26.6475 21.1859 28.1761 24.5179 29.7274 27.5375C30.8115 27.5191 31.8851 27.3232 32.9055 26.9577C34.5137 23.9852 35.9577 20.9272 37.231 17.7973C37.2493 17.7512 37.2831 17.7128 37.3266 17.6886C37.3701 17.6645 37.4206 17.6562 37.4696 17.6651C37.5185 17.674 37.5629 17.6995 37.5951 17.7373C37.6273 17.7752 37.6454 17.823 37.6462 17.8726Z" fill="#009974"/>
<path d="M61.7912 0.504513C61.7308 0.783126 61.6554 2.25902 60.8099 3.17016C60.6778 3.30947 60.172 3.71985 60.0361 3.65961C59.6134 3.47889 59.4247 2.39456 59.3794 1.83734C59.295 1.23669 59.3505 0.624708 59.5417 0.0489436C58.4093 -0.229669 56.1447 0.753006 55.5596 1.48719C55.9972 1.79042 56.4168 2.11852 56.8165 2.46986C57.0969 2.77136 57.3367 3.10803 57.5299 3.47136C57.696 3.74998 58.0168 4.43898 57.7111 4.56699C56.867 4.92604 55.9512 5.08581 55.035 5.03385C54.1176 5.08626 53.2004 4.92648 52.3552 4.56699C52.0532 4.43898 52.3552 3.74998 52.5363 3.47136C52.7322 3.10876 52.9731 2.77227 53.2535 2.46986C53.653 2.12408 54.0727 1.80223 54.5104 1.50601C53.9253 0.753006 51.672 -0.229669 50.5283 0.0489436C50.7159 0.625458 50.7713 1.2366 50.6906 1.83734C50.6453 2.39456 50.4566 3.47889 50.0339 3.65961C49.898 3.71985 49.3922 3.30947 49.2601 3.17016C48.4146 2.25902 48.3354 0.783126 48.2788 0.504513C47.0445 0.805716 45.5159 2.76354 45.3536 4.29214C48.1542 4.29214 48.8827 7.63549 55.035 7.63549C61.1873 7.63549 61.9007 4.29214 64.7164 4.29214C64.5541 2.78613 63.0255 0.805716 61.7912 0.504513Z" fill="#009974"/>
</g>
<defs>
<clipPath id="clip0_4_14">
<rect width="84" height="30" fill="white"/>
</clipPath>
</defs>
</svg>
